<?xml version="1.0" standalone="no"?><!DOCTYPE svg PUBLIC "-//W3C//DTD SVG 1.1//EN" "http://www.w3.org/Graphics/SVG/1.1/DTD/svg11.dtd"><svg t="1601716159413" class="icon" viewBox="0 0 1024 1024" version="1.1" xmlns="http://www.w3.org/2000/svg" p-id="1864" xmlns:xlink="http://www.w3.org/1999/xlink" width="200" height="200"><defs><style type="text/css"></style></defs><path d="M117.2 64h789.7l-72.4 804L512 960l-323.8-92-71-804z m393.6 364v99.8h122.5L621 655.5l-110.2 29.8v103.2l203-56 1.8-17.5 22.8-260.8 3.5-26.2H510.8z m0-199.5v98h239.8l1.8-21 5.2-50.8 1.8-26.2H510.8z" fill="#FA8033" p-id="1865"></path><path d="M512.5 428H381.2l-8.8-101.5h140v-98H264l1.8 26.2 24.5 273h222.2V428z m0 257.2h-1.8l-110.2-29.8-7-78.8h-98l12.2 155.8 203 56h1.8V685.2z" fill="#FFFFFF" p-id="1866"></path></svg>