<?xml version="1.0" standalone="no"?><!DOCTYPE svg PUBLIC "-//W3C//DTD SVG 1.1//EN" "http://www.w3.org/Graphics/SVG/1.1/DTD/svg11.dtd"><svg class="icon" width="128px" height="128.00px" viewBox="0 0 1024 1024" version="1.1" xmlns="http://www.w3.org/2000/svg"><path fill="#0074e8" d="M64 512c0 298.7 149.3 448 448 448 298.6 0 448-149.3 448-448S810.7 64 512 64 64 213.3 64 512z m399.9-209.9c9.6 8.1 185.9 173.1 202.3 187.1 23.9 16 6.3 47.4 6.3 47.4-11.8 10.3-196.9 179.3-210.9 190.7-10.3 8.4-31.8 8.7-31.8-24.4 0-9.7 21.3-96.1 21.3-185.1s-19.3-181-21.3-187.4c-7.7-23.7 22-38.5 34.1-28.3z"  /></svg>